<svg xmlns="http://www.w3.org/2000/svg" width="375" viewBox="0 0 375 375" height="375" version="1.0"><path fill="#E1EBF1" d="M 70.332031 103.792969 C 43.554688 137.605469 33.863281 195.703125 70.332031 233.546875 C 106.796875 271.386719 167.316406 256.523438 210.039062 263.273438 C 252.765625 270.027344 305.449219 270.027344 316.222656 210.566406 C 327.054688 151.109375 301.367188 136.242188 228.382812 94.316406 C 155.398438 52.390625 121.707031 38.886719 70.332031 103.792969 Z M 70.332031 103.792969"/><g fill="#98C1D9" fill-opacity=".4"><g><g><path d="M 1.765625 -17.71875 L 10.15625 -17.71875 C 12.09375 -17.71875 13.8125 -17.351562 15.3125 -16.625 C 16.8125 -15.90625 17.972656 -14.878906 18.796875 -13.546875 C 19.628906 -12.210938 20.046875 -10.648438 20.046875 -8.859375 C 20.046875 -7.066406 19.628906 -5.503906 18.796875 -4.171875 C 17.972656 -2.835938 16.8125 -1.804688 15.3125 -1.078125 C 13.8125 -0.359375 12.09375 0 10.15625 0 L 1.765625 0 Z M 9.953125 -4 C 11.460938 -4 12.675781 -4.425781 13.59375 -5.28125 C 14.519531 -6.144531 14.984375 -7.335938 14.984375 -8.859375 C 14.984375 -10.378906 14.519531 -11.566406 13.59375 -12.421875 C 12.675781 -13.285156 11.460938 -13.71875 9.953125 -13.71875 L 6.78125 -13.71875 L 6.78125 -4 Z M 9.953125 -4" transform="translate(52.75 297.493)"/></g></g></g><g fill="#98C1D9" fill-opacity=".4"><g><g><path d="M 10.609375 0.359375 C 8.753906 0.359375 7.085938 -0.03125 5.609375 -0.8125 C 4.128906 -1.601562 2.96875 -2.695312 2.125 -4.09375 C 1.28125 -5.5 0.859375 -7.085938 0.859375 -8.859375 C 0.859375 -10.628906 1.28125 -12.210938 2.125 -13.609375 C 2.96875 -15.015625 4.128906 -16.109375 5.609375 -16.890625 C 7.085938 -17.679688 8.753906 -18.078125 10.609375 -18.078125 C 12.222656 -18.078125 13.679688 -17.789062 14.984375 -17.21875 C 16.285156 -16.644531 17.363281 -15.816406 18.21875 -14.734375 L 15.03125 -11.84375 C 13.882812 -13.226562 12.492188 -13.921875 10.859375 -13.921875 C 9.898438 -13.921875 9.039062 -13.707031 8.28125 -13.28125 C 7.53125 -12.863281 6.945312 -12.269531 6.53125 -11.5 C 6.125 -10.738281 5.921875 -9.859375 5.921875 -8.859375 C 5.921875 -7.859375 6.125 -6.972656 6.53125 -6.203125 C 6.945312 -5.441406 7.53125 -4.847656 8.28125 -4.421875 C 9.039062 -4.003906 9.898438 -3.796875 10.859375 -3.796875 C 12.492188 -3.796875 13.882812 -4.488281 15.03125 -5.875 L 18.21875 -2.984375 C 17.363281 -1.898438 16.285156 -1.070312 14.984375 -0.5 C 13.679688 0.0703125 12.222656 0.359375 10.609375 0.359375 Z M 10.609375 0.359375" transform="translate(73.648 297.493)"/></g></g></g><g fill="#98C1D9" fill-opacity=".4"><g><g><path d="M 16 -3.875 L 16 0 L 1.765625 0 L 1.765625 -17.71875 L 15.671875 -17.71875 L 15.671875 -13.84375 L 6.734375 -13.84375 L 6.734375 -10.859375 L 14.609375 -10.859375 L 14.609375 -7.109375 L 6.734375 -7.109375 L 6.734375 -3.875 Z M 16 -3.875" transform="translate(92.32 297.493)"/></g></g></g><g fill="#98C1D9" fill-opacity=".4"><g><g><path d="M 13.640625 -9.234375 L 18.078125 -9.234375 L 18.078125 -1.890625 C 17.054688 -1.171875 15.890625 -0.613281 14.578125 -0.21875 C 13.265625 0.164062 11.945312 0.359375 10.625 0.359375 C 8.769531 0.359375 7.097656 -0.03125 5.609375 -0.8125 C 4.128906 -1.601562 2.96875 -2.695312 2.125 -4.09375 C 1.28125 -5.5 0.859375 -7.085938 0.859375 -8.859375 C 0.859375 -10.628906 1.28125 -12.210938 2.125 -13.609375 C 2.96875 -15.015625 4.140625 -16.109375 5.640625 -16.890625 C 7.140625 -17.679688 8.835938 -18.078125 10.734375 -18.078125 C 12.390625 -18.078125 13.875 -17.796875 15.1875 -17.234375 C 16.5 -16.679688 17.597656 -15.878906 18.484375 -14.828125 L 15.28125 -11.953125 C 14.082031 -13.265625 12.648438 -13.921875 10.984375 -13.921875 C 9.460938 -13.921875 8.238281 -13.457031 7.3125 -12.53125 C 6.382812 -11.613281 5.921875 -10.390625 5.921875 -8.859375 C 5.921875 -7.878906 6.128906 -7.003906 6.546875 -6.234375 C 6.972656 -5.472656 7.566406 -4.875 8.328125 -4.4375 C 9.085938 -4.007812 9.957031 -3.796875 10.9375 -3.796875 C 11.894531 -3.796875 12.796875 -3.988281 13.640625 -4.375 Z M 13.640625 -9.234375" transform="translate(109.322 297.493)"/></g></g></g><g fill="#98C1D9" fill-opacity=".4"><g><g><path d="M 29.5625 -17.71875 L 23.8125 0 L 18.453125 0 L 15.0625 -10.78125 L 11.515625 0 L 6.15625 0 L 0.40625 -17.71875 L 5.5625 -17.71875 L 9.140625 -6.40625 L 12.890625 -17.71875 L 17.484375 -17.71875 L 21.0625 -6.296875 L 24.78125 -17.71875 Z M 29.5625 -17.71875" transform="translate(136.167 297.493)"/></g></g></g><g fill="#98C1D9" fill-opacity=".4"><g><g><path d="M 10.703125 0.359375 C 8.828125 0.359375 7.144531 -0.0351562 5.65625 -0.828125 C 4.164062 -1.628906 2.992188 -2.726562 2.140625 -4.125 C 1.285156 -5.53125 0.859375 -7.109375 0.859375 -8.859375 C 0.859375 -10.609375 1.285156 -12.179688 2.140625 -13.578125 C 2.992188 -14.984375 4.164062 -16.082031 5.65625 -16.875 C 7.144531 -17.675781 8.828125 -18.078125 10.703125 -18.078125 C 12.578125 -18.078125 14.257812 -17.675781 15.75 -16.875 C 17.25 -16.082031 18.421875 -14.984375 19.265625 -13.578125 C 20.117188 -12.179688 20.546875 -10.609375 20.546875 -8.859375 C 20.546875 -7.109375 20.117188 -5.53125 19.265625 -4.125 C 18.421875 -2.726562 17.25 -1.628906 15.75 -0.828125 C 14.257812 -0.0351562 12.578125 0.359375 10.703125 0.359375 Z M 10.703125 -3.796875 C 11.597656 -3.796875 12.40625 -4.003906 13.125 -4.421875 C 13.851562 -4.847656 14.425781 -5.441406 14.84375 -6.203125 C 15.269531 -6.972656 15.484375 -7.859375 15.484375 -8.859375 C 15.484375 -9.859375 15.269531 -10.738281 14.84375 -11.5 C 14.425781 -12.269531 13.851562 -12.863281 13.125 -13.28125 C 12.40625 -13.707031 11.597656 -13.921875 10.703125 -13.921875 C 9.804688 -13.921875 8.992188 -13.707031 8.265625 -13.28125 C 7.546875 -12.863281 6.972656 -12.269531 6.546875 -11.5 C 6.128906 -10.738281 5.921875 -9.859375 5.921875 -8.859375 C 5.921875 -7.859375 6.128906 -6.972656 6.546875 -6.203125 C 6.972656 -5.441406 7.546875 -4.847656 8.265625 -4.421875 C 8.992188 -4.003906 9.804688 -3.796875 10.703125 -3.796875 Z M 10.703125 -3.796875" transform="translate(166.123 297.493)"/></g></g></g><g fill="#98C1D9" fill-opacity=".4"><g><g><path d="M 9.515625 -4.703125 L 6.78125 -4.703125 L 6.78125 0 L 1.765625 0 L 1.765625 -17.71875 L 9.875 -17.71875 C 11.476562 -17.71875 12.867188 -17.453125 14.046875 -16.921875 C 15.222656 -16.390625 16.132812 -15.628906 16.78125 -14.640625 C 17.425781 -13.648438 17.75 -12.488281 17.75 -11.15625 C 17.75 -9.875 17.445312 -8.753906 16.84375 -7.796875 C 16.25 -6.847656 15.394531 -6.101562 14.28125 -5.5625 L 18.09375 0 L 12.734375 0 Z M 12.6875 -11.15625 C 12.6875 -11.988281 12.421875 -12.628906 11.890625 -13.078125 C 11.367188 -13.535156 10.59375 -13.765625 9.5625 -13.765625 L 6.78125 -13.765625 L 6.78125 -8.578125 L 9.5625 -8.578125 C 10.59375 -8.578125 11.367188 -8.800781 11.890625 -9.25 C 12.421875 -9.695312 12.6875 -10.332031 12.6875 -11.15625 Z M 12.6875 -11.15625" transform="translate(187.527 297.493)"/></g></g></g><g fill="#98C1D9" fill-opacity=".4"><g><g><path d="M 8.609375 -6.421875 L 6.734375 -4.421875 L 6.734375 0 L 1.765625 0 L 1.765625 -17.71875 L 6.734375 -17.71875 L 6.734375 -10.359375 L 13.59375 -17.71875 L 19.109375 -17.71875 L 11.875 -9.875 L 19.484375 0 L 13.671875 0 Z M 8.609375 -6.421875" transform="translate(206.25 297.493)"/></g></g></g><g fill="#98C1D9" fill-opacity=".4"><g><g><path d="M 8 0.359375 C 6.5625 0.359375 5.164062 0.179688 3.8125 -0.171875 C 2.46875 -0.523438 1.375 -1 0.53125 -1.59375 L 2.171875 -5.296875 C 2.960938 -4.765625 3.878906 -4.335938 4.921875 -4.015625 C 5.972656 -3.703125 7.007812 -3.546875 8.03125 -3.546875 C 9.945312 -3.546875 10.90625 -4.023438 10.90625 -4.984375 C 10.90625 -5.492188 10.628906 -5.867188 10.078125 -6.109375 C 9.535156 -6.359375 8.65625 -6.617188 7.4375 -6.890625 C 6.101562 -7.171875 4.988281 -7.472656 4.09375 -7.796875 C 3.207031 -8.128906 2.441406 -8.660156 1.796875 -9.390625 C 1.148438 -10.117188 0.828125 -11.097656 0.828125 -12.328125 C 0.828125 -13.410156 1.125 -14.382812 1.71875 -15.25 C 2.3125 -16.113281 3.191406 -16.800781 4.359375 -17.3125 C 5.535156 -17.820312 6.976562 -18.078125 8.6875 -18.078125 C 9.84375 -18.078125 10.988281 -17.941406 12.125 -17.671875 C 13.257812 -17.410156 14.253906 -17.03125 15.109375 -16.53125 L 13.5625 -12.8125 C 11.875 -13.71875 10.238281 -14.171875 8.65625 -14.171875 C 7.65625 -14.171875 6.925781 -14.019531 6.46875 -13.71875 C 6.019531 -13.425781 5.796875 -13.046875 5.796875 -12.578125 C 5.796875 -12.109375 6.066406 -11.753906 6.609375 -11.515625 C 7.148438 -11.273438 8.019531 -11.03125 9.21875 -10.78125 C 10.5625 -10.5 11.675781 -10.191406 12.5625 -9.859375 C 13.445312 -9.523438 14.210938 -9 14.859375 -8.28125 C 15.515625 -7.570312 15.84375 -6.597656 15.84375 -5.359375 C 15.84375 -4.296875 15.546875 -3.332031 14.953125 -2.46875 C 14.367188 -1.613281 13.484375 -0.925781 12.296875 -0.40625 C 11.117188 0.101562 9.6875 0.359375 8 0.359375 Z M 8 0.359375" transform="translate(225.276 297.493)"/></g></g></g><g fill="#98C1D9" fill-opacity=".4"><g><g><path d="M 18.625 -17.71875 L 18.625 0 L 13.625 0 L 13.625 -6.90625 L 6.78125 -6.90625 L 6.78125 0 L 1.765625 0 L 1.765625 -17.71875 L 6.78125 -17.71875 L 6.78125 -11.0625 L 13.625 -11.0625 L 13.625 -17.71875 Z M 18.625 -17.71875" transform="translate(241.645 297.493)"/></g></g></g><g fill="#98C1D9" fill-opacity=".4"><g><g><path d="M 10.703125 0.359375 C 8.828125 0.359375 7.144531 -0.0351562 5.65625 -0.828125 C 4.164062 -1.628906 2.992188 -2.726562 2.140625 -4.125 C 1.285156 -5.53125 0.859375 -7.109375 0.859375 -8.859375 C 0.859375 -10.609375 1.285156 -12.179688 2.140625 -13.578125 C 2.992188 -14.984375 4.164062 -16.082031 5.65625 -16.875 C 7.144531 -17.675781 8.828125 -18.078125 10.703125 -18.078125 C 12.578125 -18.078125 14.257812 -17.675781 15.75 -16.875 C 17.25 -16.082031 18.421875 -14.984375 19.265625 -13.578125 C 20.117188 -12.179688 20.546875 -10.609375 20.546875 -8.859375 C 20.546875 -7.109375 20.117188 -5.53125 19.265625 -4.125 C 18.421875 -2.726562 17.25 -1.628906 15.75 -0.828125 C 14.257812 -0.0351562 12.578125 0.359375 10.703125 0.359375 Z M 10.703125 -3.796875 C 11.597656 -3.796875 12.40625 -4.003906 13.125 -4.421875 C 13.851562 -4.847656 14.425781 -5.441406 14.84375 -6.203125 C 15.269531 -6.972656 15.484375 -7.859375 15.484375 -8.859375 C 15.484375 -9.859375 15.269531 -10.738281 14.84375 -11.5 C 14.425781 -12.269531 13.851562 -12.863281 13.125 -13.28125 C 12.40625 -13.707031 11.597656 -13.921875 10.703125 -13.921875 C 9.804688 -13.921875 8.992188 -13.707031 8.265625 -13.28125 C 7.546875 -12.863281 6.972656 -12.269531 6.546875 -11.5 C 6.128906 -10.738281 5.921875 -9.859375 5.921875 -8.859375 C 5.921875 -7.859375 6.128906 -6.972656 6.546875 -6.203125 C 6.972656 -5.441406 7.546875 -4.847656 8.265625 -4.421875 C 8.992188 -4.003906 9.804688 -3.796875 10.703125 -3.796875 Z M 10.703125 -3.796875" transform="translate(262.038 297.493)"/></g></g></g><g fill="#98C1D9" fill-opacity=".4"><g><g><path d="M 9.875 -17.71875 C 11.476562 -17.71875 12.867188 -17.453125 14.046875 -16.921875 C 15.222656 -16.390625 16.132812 -15.628906 16.78125 -14.640625 C 17.425781 -13.648438 17.75 -12.488281 17.75 -11.15625 C 17.75 -9.820312 17.425781 -8.664062 16.78125 -7.6875 C 16.132812 -6.71875 15.222656 -5.960938 14.046875 -5.421875 C 12.867188 -4.890625 11.476562 -4.625 9.875 -4.625 L 6.78125 -4.625 L 6.78125 0 L 1.765625 0 L 1.765625 -17.71875 Z M 9.5625 -8.578125 C 10.59375 -8.578125 11.367188 -8.800781 11.890625 -9.25 C 12.421875 -9.695312 12.6875 -10.332031 12.6875 -11.15625 C 12.6875 -11.988281 12.421875 -12.628906 11.890625 -13.078125 C 11.367188 -13.535156 10.59375 -13.765625 9.5625 -13.765625 L 6.78125 -13.765625 L 6.78125 -8.578125 Z M 9.5625 -8.578125" transform="translate(283.442 297.493)"/></g></g></g><g fill="#98C1D9" fill-opacity=".4"><g><g><path d="M 8 0.359375 C 6.5625 0.359375 5.164062 0.179688 3.8125 -0.171875 C 2.46875 -0.523438 1.375 -1 0.53125 -1.59375 L 2.171875 -5.296875 C 2.960938 -4.765625 3.878906 -4.335938 4.921875 -4.015625 C 5.972656 -3.703125 7.007812 -3.546875 8.03125 -3.546875 C 9.945312 -3.546875 10.90625 -4.023438 10.90625 -4.984375 C 10.90625 -5.492188 10.628906 -5.867188 10.078125 -6.109375 C 9.535156 -6.359375 8.65625 -6.617188 7.4375 -6.890625 C 6.101562 -7.171875 4.988281 -7.472656 4.09375 -7.796875 C 3.207031 -8.128906 2.441406 -8.660156 1.796875 -9.390625 C 1.148438 -10.117188 0.828125 -11.097656 0.828125 -12.328125 C 0.828125 -13.410156 1.125 -14.382812 1.71875 -15.25 C 2.3125 -16.113281 3.191406 -16.800781 4.359375 -17.3125 C 5.535156 -17.820312 6.976562 -18.078125 8.6875 -18.078125 C 9.84375 -18.078125 10.988281 -17.941406 12.125 -17.671875 C 13.257812 -17.410156 14.253906 -17.03125 15.109375 -16.53125 L 13.5625 -12.8125 C 11.875 -13.71875 10.238281 -14.171875 8.65625 -14.171875 C 7.65625 -14.171875 6.925781 -14.019531 6.46875 -13.71875 C 6.019531 -13.425781 5.796875 -13.046875 5.796875 -12.578125 C 5.796875 -12.109375 6.066406 -11.753906 6.609375 -11.515625 C 7.148438 -11.273438 8.019531 -11.03125 9.21875 -10.78125 C 10.5625 -10.5 11.675781 -10.191406 12.5625 -9.859375 C 13.445312 -9.523438 14.210938 -9 14.859375 -8.28125 C 15.515625 -7.570312 15.84375 -6.597656 15.84375 -5.359375 C 15.84375 -4.296875 15.546875 -3.332031 14.953125 -2.46875 C 14.367188 -1.613281 13.484375 -0.925781 12.296875 -0.40625 C 11.117188 0.101562 9.6875 0.359375 8 0.359375 Z M 8 0.359375" transform="translate(302.089 297.493)"/></g></g></g><g fill="#004AAD"><g><g><path d="M 1.765625 -17.71875 L 10.15625 -17.71875 C 12.09375 -17.71875 13.8125 -17.351562 15.3125 -16.625 C 16.8125 -15.90625 17.972656 -14.878906 18.796875 -13.546875 C 19.628906 -12.210938 20.046875 -10.648438 20.046875 -8.859375 C 20.046875 -7.066406 19.628906 -5.503906 18.796875 -4.171875 C 17.972656 -2.835938 16.8125 -1.804688 15.3125 -1.078125 C 13.8125 -0.359375 12.09375 0 10.15625 0 L 1.765625 0 Z M 9.953125 -4 C 11.460938 -4 12.675781 -4.425781 13.59375 -5.28125 C 14.519531 -6.144531 14.984375 -7.335938 14.984375 -8.859375 C 14.984375 -10.378906 14.519531 -11.566406 13.59375 -12.421875 C 12.675781 -13.285156 11.460938 -13.71875 9.953125 -13.71875 L 6.78125 -13.71875 L 6.78125 -4 Z M 9.953125 -4" transform="translate(50.983 295.726)"/></g></g></g><g fill="#004AAD"><g><g><path d="M 10.609375 0.359375 C 8.753906 0.359375 7.085938 -0.03125 5.609375 -0.8125 C 4.128906 -1.601562 2.96875 -2.695312 2.125 -4.09375 C 1.28125 -5.5 0.859375 -7.085938 0.859375 -8.859375 C 0.859375 -10.628906 1.28125 -12.210938 2.125 -13.609375 C 2.96875 -15.015625 4.128906 -16.109375 5.609375 -16.890625 C 7.085938 -17.679688 8.753906 -18.078125 10.609375 -18.078125 C 12.222656 -18.078125 13.679688 -17.789062 14.984375 -17.21875 C 16.285156 -16.644531 17.363281 -15.816406 18.21875 -14.734375 L 15.03125 -11.84375 C 13.882812 -13.226562 12.492188 -13.921875 10.859375 -13.921875 C 9.898438 -13.921875 9.039062 -13.707031 8.28125 -13.28125 C 7.53125 -12.863281 6.945312 -12.269531 6.53125 -11.5 C 6.125 -10.738281 5.921875 -9.859375 5.921875 -8.859375 C 5.921875 -7.859375 6.125 -6.972656 6.53125 -6.203125 C 6.945312 -5.441406 7.53125 -4.847656 8.28125 -4.421875 C 9.039062 -4.003906 9.898438 -3.796875 10.859375 -3.796875 C 12.492188 -3.796875 13.882812 -4.488281 15.03125 -5.875 L 18.21875 -2.984375 C 17.363281 -1.898438 16.285156 -1.070312 14.984375 -0.5 C 13.679688 0.0703125 12.222656 0.359375 10.609375 0.359375 Z M 10.609375 0.359375" transform="translate(71.881 295.726)"/></g></g></g><g fill="#004AAD"><g><g><path d="M 16 -3.875 L 16 0 L 1.765625 0 L 1.765625 -17.71875 L 15.671875 -17.71875 L 15.671875 -13.84375 L 6.734375 -13.84375 L 6.734375 -10.859375 L 14.609375 -10.859375 L 14.609375 -7.109375 L 6.734375 -7.109375 L 6.734375 -3.875 Z M 16 -3.875" transform="translate(90.553 295.726)"/></g></g></g><g fill="#004AAD"><g><g><path d="M 13.640625 -9.234375 L 18.078125 -9.234375 L 18.078125 -1.890625 C 17.054688 -1.171875 15.890625 -0.613281 14.578125 -0.21875 C 13.265625 0.164062 11.945312 0.359375 10.625 0.359375 C 8.769531 0.359375 7.097656 -0.03125 5.609375 -0.8125 C 4.128906 -1.601562 2.96875 -2.695312 2.125 -4.09375 C 1.28125 -5.5 0.859375 -7.085938 0.859375 -8.859375 C 0.859375 -10.628906 1.28125 -12.210938 2.125 -13.609375 C 2.96875 -15.015625 4.140625 -16.109375 5.640625 -16.890625 C 7.140625 -17.679688 8.835938 -18.078125 10.734375 -18.078125 C 12.390625 -18.078125 13.875 -17.796875 15.1875 -17.234375 C 16.5 -16.679688 17.597656 -15.878906 18.484375 -14.828125 L 15.28125 -11.953125 C 14.082031 -13.265625 12.648438 -13.921875 10.984375 -13.921875 C 9.460938 -13.921875 8.238281 -13.457031 7.3125 -12.53125 C 6.382812 -11.613281 5.921875 -10.390625 5.921875 -8.859375 C 5.921875 -7.878906 6.128906 -7.003906 6.546875 -6.234375 C 6.972656 -5.472656 7.566406 -4.875 8.328125 -4.4375 C 9.085938 -4.007812 9.957031 -3.796875 10.9375 -3.796875 C 11.894531 -3.796875 12.796875 -3.988281 13.640625 -4.375 Z M 13.640625 -9.234375" transform="translate(107.555 295.726)"/></g></g></g><g fill="#004AAD"><g><g><path d="M 29.5625 -17.71875 L 23.8125 0 L 18.453125 0 L 15.0625 -10.78125 L 11.515625 0 L 6.15625 0 L 0.40625 -17.71875 L 5.5625 -17.71875 L 9.140625 -6.40625 L 12.890625 -17.71875 L 17.484375 -17.71875 L 21.0625 -6.296875 L 24.78125 -17.71875 Z M 29.5625 -17.71875" transform="translate(134.4 295.726)"/></g></g></g><g fill="#004AAD"><g><g><path d="M 10.703125 0.359375 C 8.828125 0.359375 7.144531 -0.0351562 5.65625 -0.828125 C 4.164062 -1.628906 2.992188 -2.726562 2.140625 -4.125 C 1.285156 -5.53125 0.859375 -7.109375 0.859375 -8.859375 C 0.859375 -10.609375 1.285156 -12.179688 2.140625 -13.578125 C 2.992188 -14.984375 4.164062 -16.082031 5.65625 -16.875 C 7.144531 -17.675781 8.828125 -18.078125 10.703125 -18.078125 C 12.578125 -18.078125 14.257812 -17.675781 15.75 -16.875 C 17.25 -16.082031 18.421875 -14.984375 19.265625 -13.578125 C 20.117188 -12.179688 20.546875 -10.609375 20.546875 -8.859375 C 20.546875 -7.109375 20.117188 -5.53125 19.265625 -4.125 C 18.421875 -2.726562 17.25 -1.628906 15.75 -0.828125 C 14.257812 -0.0351562 12.578125 0.359375 10.703125 0.359375 Z M 10.703125 -3.796875 C 11.597656 -3.796875 12.40625 -4.003906 13.125 -4.421875 C 13.851562 -4.847656 14.425781 -5.441406 14.84375 -6.203125 C 15.269531 -6.972656 15.484375 -7.859375 15.484375 -8.859375 C 15.484375 -9.859375 15.269531 -10.738281 14.84375 -11.5 C 14.425781 -12.269531 13.851562 -12.863281 13.125 -13.28125 C 12.40625 -13.707031 11.597656 -13.921875 10.703125 -13.921875 C 9.804688 -13.921875 8.992188 -13.707031 8.265625 -13.28125 C 7.546875 -12.863281 6.972656 -12.269531 6.546875 -11.5 C 6.128906 -10.738281 5.921875 -9.859375 5.921875 -8.859375 C 5.921875 -7.859375 6.128906 -6.972656 6.546875 -6.203125 C 6.972656 -5.441406 7.546875 -4.847656 8.265625 -4.421875 C 8.992188 -4.003906 9.804688 -3.796875 10.703125 -3.796875 Z M 10.703125 -3.796875" transform="translate(164.355 295.726)"/></g></g></g><g fill="#004AAD"><g><g><path d="M 9.515625 -4.703125 L 6.78125 -4.703125 L 6.78125 0 L 1.765625 0 L 1.765625 -17.71875 L 9.875 -17.71875 C 11.476562 -17.71875 12.867188 -17.453125 14.046875 -16.921875 C 15.222656 -16.390625 16.132812 -15.628906 16.78125 -14.640625 C 17.425781 -13.648438 17.75 -12.488281 17.75 -11.15625 C 17.75 -9.875 17.445312 -8.753906 16.84375 -7.796875 C 16.25 -6.847656 15.394531 -6.101562 14.28125 -5.5625 L 18.09375 0 L 12.734375 0 Z M 12.6875 -11.15625 C 12.6875 -11.988281 12.421875 -12.628906 11.890625 -13.078125 C 11.367188 -13.535156 10.59375 -13.765625 9.5625 -13.765625 L 6.78125 -13.765625 L 6.78125 -8.578125 L 9.5625 -8.578125 C 10.59375 -8.578125 11.367188 -8.800781 11.890625 -9.25 C 12.421875 -9.695312 12.6875 -10.332031 12.6875 -11.15625 Z M 12.6875 -11.15625" transform="translate(185.76 295.726)"/></g></g></g><g fill="#004AAD"><g><g><path d="M 8.609375 -6.421875 L 6.734375 -4.421875 L 6.734375 0 L 1.765625 0 L 1.765625 -17.71875 L 6.734375 -17.71875 L 6.734375 -10.359375 L 13.59375 -17.71875 L 19.109375 -17.71875 L 11.875 -9.875 L 19.484375 0 L 13.671875 0 Z M 8.609375 -6.421875" transform="translate(204.482 295.726)"/></g></g></g><g fill="#004AAD"><g><g><path d="M 8 0.359375 C 6.5625 0.359375 5.164062 0.179688 3.8125 -0.171875 C 2.46875 -0.523438 1.375 -1 0.53125 -1.59375 L 2.171875 -5.296875 C 2.960938 -4.765625 3.878906 -4.335938 4.921875 -4.015625 C 5.972656 -3.703125 7.007812 -3.546875 8.03125 -3.546875 C 9.945312 -3.546875 10.90625 -4.023438 10.90625 -4.984375 C 10.90625 -5.492188 10.628906 -5.867188 10.078125 -6.109375 C 9.535156 -6.359375 8.65625 -6.617188 7.4375 -6.890625 C 6.101562 -7.171875 4.988281 -7.472656 4.09375 -7.796875 C 3.207031 -8.128906 2.441406 -8.660156 1.796875 -9.390625 C 1.148438 -10.117188 0.828125 -11.097656 0.828125 -12.328125 C 0.828125 -13.410156 1.125 -14.382812 1.71875 -15.25 C 2.3125 -16.113281 3.191406 -16.800781 4.359375 -17.3125 C 5.535156 -17.820312 6.976562 -18.078125 8.6875 -18.078125 C 9.84375 -18.078125 10.988281 -17.941406 12.125 -17.671875 C 13.257812 -17.410156 14.253906 -17.03125 15.109375 -16.53125 L 13.5625 -12.8125 C 11.875 -13.71875 10.238281 -14.171875 8.65625 -14.171875 C 7.65625 -14.171875 6.925781 -14.019531 6.46875 -13.71875 C 6.019531 -13.425781 5.796875 -13.046875 5.796875 -12.578125 C 5.796875 -12.109375 6.066406 -11.753906 6.609375 -11.515625 C 7.148438 -11.273438 8.019531 -11.03125 9.21875 -10.78125 C 10.5625 -10.5 11.675781 -10.191406 12.5625 -9.859375 C 13.445312 -9.523438 14.210938 -9 14.859375 -8.28125 C 15.515625 -7.570312 15.84375 -6.597656 15.84375 -5.359375 C 15.84375 -4.296875 15.546875 -3.332031 14.953125 -2.46875 C 14.367188 -1.613281 13.484375 -0.925781 12.296875 -0.40625 C 11.117188 0.101562 9.6875 0.359375 8 0.359375 Z M 8 0.359375" transform="translate(223.508 295.726)"/></g></g></g><g fill="#004AAD"><g><g><path d="M 18.625 -17.71875 L 18.625 0 L 13.625 0 L 13.625 -6.90625 L 6.78125 -6.90625 L 6.78125 0 L 1.765625 0 L 1.765625 -17.71875 L 6.78125 -17.71875 L 6.78125 -11.0625 L 13.625 -11.0625 L 13.625 -17.71875 Z M 18.625 -17.71875" transform="translate(239.878 295.726)"/></g></g></g><g fill="#004AAD"><g><g><path d="M 10.703125 0.359375 C 8.828125 0.359375 7.144531 -0.0351562 5.65625 -0.828125 C 4.164062 -1.628906 2.992188 -2.726562 2.140625 -4.125 C 1.285156 -5.53125 0.859375 -7.109375 0.859375 -8.859375 C 0.859375 -10.609375 1.285156 -12.179688 2.140625 -13.578125 C 2.992188 -14.984375 4.164062 -16.082031 5.65625 -16.875 C 7.144531 -17.675781 8.828125 -18.078125 10.703125 -18.078125 C 12.578125 -18.078125 14.257812 -17.675781 15.75 -16.875 C 17.25 -16.082031 18.421875 -14.984375 19.265625 -13.578125 C 20.117188 -12.179688 20.546875 -10.609375 20.546875 -8.859375 C 20.546875 -7.109375 20.117188 -5.53125 19.265625 -4.125 C 18.421875 -2.726562 17.25 -1.628906 15.75 -0.828125 C 14.257812 -0.0351562 12.578125 0.359375 10.703125 0.359375 Z M 10.703125 -3.796875 C 11.597656 -3.796875 12.40625 -4.003906 13.125 -4.421875 C 13.851562 -4.847656 14.425781 -5.441406 14.84375 -6.203125 C 15.269531 -6.972656 15.484375 -7.859375 15.484375 -8.859375 C 15.484375 -9.859375 15.269531 -10.738281 14.84375 -11.5 C 14.425781 -12.269531 13.851562 -12.863281 13.125 -13.28125 C 12.40625 -13.707031 11.597656 -13.921875 10.703125 -13.921875 C 9.804688 -13.921875 8.992188 -13.707031 8.265625 -13.28125 C 7.546875 -12.863281 6.972656 -12.269531 6.546875 -11.5 C 6.128906 -10.738281 5.921875 -9.859375 5.921875 -8.859375 C 5.921875 -7.859375 6.128906 -6.972656 6.546875 -6.203125 C 6.972656 -5.441406 7.546875 -4.847656 8.265625 -4.421875 C 8.992188 -4.003906 9.804688 -3.796875 10.703125 -3.796875 Z M 10.703125 -3.796875" transform="translate(260.27 295.726)"/></g></g></g><g fill="#004AAD"><g><g><path d="M 9.875 -17.71875 C 11.476562 -17.71875 12.867188 -17.453125 14.046875 -16.921875 C 15.222656 -16.390625 16.132812 -15.628906 16.78125 -14.640625 C 17.425781 -13.648438 17.75 -12.488281 17.75 -11.15625 C 17.75 -9.820312 17.425781 -8.664062 16.78125 -7.6875 C 16.132812 -6.71875 15.222656 -5.960938 14.046875 -5.421875 C 12.867188 -4.890625 11.476562 -4.625 9.875 -4.625 L 6.78125 -4.625 L 6.78125 0 L 1.765625 0 L 1.765625 -17.71875 Z M 9.5625 -8.578125 C 10.59375 -8.578125 11.367188 -8.800781 11.890625 -9.25 C 12.421875 -9.695312 12.6875 -10.332031 12.6875 -11.15625 C 12.6875 -11.988281 12.421875 -12.628906 11.890625 -13.078125 C 11.367188 -13.535156 10.59375 -13.765625 9.5625 -13.765625 L 6.78125 -13.765625 L 6.78125 -8.578125 Z M 9.5625 -8.578125" transform="translate(281.675 295.726)"/></g></g></g><g fill="#004AAD"><g><g><path d="M 8 0.359375 C 6.5625 0.359375 5.164062 0.179688 3.8125 -0.171875 C 2.46875 -0.523438 1.375 -1 0.53125 -1.59375 L 2.171875 -5.296875 C 2.960938 -4.765625 3.878906 -4.335938 4.921875 -4.015625 C 5.972656 -3.703125 7.007812 -3.546875 8.03125 -3.546875 C 9.945312 -3.546875 10.90625 -4.023438 10.90625 -4.984375 C 10.90625 -5.492188 10.628906 -5.867188 10.078125 -6.109375 C 9.535156 -6.359375 8.65625 -6.617188 7.4375 -6.890625 C 6.101562 -7.171875 4.988281 -7.472656 4.09375 -7.796875 C 3.207031 -8.128906 2.441406 -8.660156 1.796875 -9.390625 C 1.148438 -10.117188 0.828125 -11.097656 0.828125 -12.328125 C 0.828125 -13.410156 1.125 -14.382812 1.71875 -15.25 C 2.3125 -16.113281 3.191406 -16.800781 4.359375 -17.3125 C 5.535156 -17.820312 6.976562 -18.078125 8.6875 -18.078125 C 9.84375 -18.078125 10.988281 -17.941406 12.125 -17.671875 C 13.257812 -17.410156 14.253906 -17.03125 15.109375 -16.53125 L 13.5625 -12.8125 C 11.875 -13.71875 10.238281 -14.171875 8.65625 -14.171875 C 7.65625 -14.171875 6.925781 -14.019531 6.46875 -13.71875 C 6.019531 -13.425781 5.796875 -13.046875 5.796875 -12.578125 C 5.796875 -12.109375 6.066406 -11.753906 6.609375 -11.515625 C 7.148438 -11.273438 8.019531 -11.03125 9.21875 -10.78125 C 10.5625 -10.5 11.675781 -10.191406 12.5625 -9.859375 C 13.445312 -9.523438 14.210938 -9 14.859375 -8.28125 C 15.515625 -7.570312 15.84375 -6.597656 15.84375 -5.359375 C 15.84375 -4.296875 15.546875 -3.332031 14.953125 -2.46875 C 14.367188 -1.613281 13.484375 -0.925781 12.296875 -0.40625 C 11.117188 0.101562 9.6875 0.359375 8 0.359375 Z M 8 0.359375" transform="translate(300.321 295.726)"/></g></g></g><g fill="#004AAD"><g><g><path d="M 4.796875 -31.484375 L 46.0625 -48.265625 L 4.796875 -67.09375 L 4.796875 -86.875 L 72.09375 -53.1875 L 72.09375 -41.734375 L 4.796875 -11.84375 Z M 4.796875 -31.484375" transform="translate(101.533 217.014)"/></g></g></g><g fill="#004AAD"><g><g><path d="M 68.4375 25.234375 L -0.265625 25.234375 L -0.265625 8.859375 L 68.4375 8.859375 Z M 68.4375 25.234375" transform="translate(178.682 217.014)"/></g></g></g></svg>